<svg width="512" height="512" xmlns="http://www.w3.org/2000/svg"><path fill="#e08ddb" stroke="#000" stroke-width="4" d="M446.891 276.125Q478.711 271.529 469.872 245.366 465.63 241.477 461.741 251.73 458.912 253.851 455.023 254.558"/><path fill="#e08ddb" stroke="#000" stroke-width="4" d="M419.314 269.761Q434.164 266.933 437.699 259.155 440.174 237.941 437.346 245.72 435.224 266.579 425.325 260.569 416.839 249.962 423.557 234.052 440.174 221.324 450.073 240.416 457.852 258.448 447.952 272.59 440.174 287.085 422.85 285.671"/><path fill="#e08ddb" stroke="#000" stroke-width="8" d="M107.25 192.75Q76 81 159 149.75"/><path fill="#ff6abd" d="M113.844 182.434Q99.702 110.309 156.271 164.049"/><path fill="#e08ddb" stroke="#000" stroke-width="8" d="M274 414Q291 452.25 312.5 409.75"/><path fill="#ffa1f8" stroke="#000" stroke-width="8" d="M115.258 380.423Q117.38 468.105 190.125 404"/><path fill="#ffa1f8" fill-opacity="1" stroke="none" stroke-opacity="0" stroke-width="8" d="M84.853 246.78Q118 113 268 154 342.947 158.392 386.787 205.768 453.963 295.571 393 371 278 457 107.48 374.06 14.142 304.056 84.853 246.78L87 239"/><ellipse fill="#ff6abd" cx="84.853" cy="292.742" rx="16.263" ry="11.314"/><ellipse cx="118.794" cy="250.316" rx="15.556" ry="21.92"/><ellipse fill="#e08ddb" fill-opacity="1" stroke="#000" stroke-width="8" cx="147.785" cy="309.006" rx="38.891" ry="32.527"/><ellipse cx="134.35" cy="309.713" rx="5.657" ry="9.9"/><ellipse cx="158.392" cy="311.127" rx="6.364" ry="9.9"/><ellipse cx="208.597" cy="255.973" rx="15.556" ry="21.92"/><ellipse fill="#ff6abd" cx="230.517" cy="301.935" rx="19.799" ry="12.728"/><path fill="#fc87c8" d="M109.602 375.474Q265.872 420.729 414.365 336.583 328.805 470.933 110 374"/><path fill="none" fill-opacity="0" stroke="#000" stroke-width="8" d="M84.853 246.78Q118 113 268 154 342.947 158.392 386.787 205.768 453.963 295.571 393 371 278 457 107.48 374.06 14.142 304.056 84.853 246.78L87 239"/><path fill="#ffa1f8" stroke="#000" stroke-width="8" d="M212.75 157.5Q309.5 42.25 288.5 198.75"/><path fill="#fc87c8" fill-opacity="1" stroke="#000" stroke-opacity="1" stroke-width="8" d="M175 401Q212.662 409.238 214.077 413.127 251 484 285 413 281.75 412.5 313.375 410.375"/><path fill="#fc87c8" fill-opacity="1" stroke="#000" stroke-width="8" d="M329.689 401.106Q409.415 456.791 394.566 370.524 396.813 366.938 404.563 354.375"/><path fill="#fc87c8" d="M330.75 399.625Q331.125 398.438 332.063 398 334.375 397.625 335.313 400.063 333.047 399.206 330.75 399.625"/><path fill="#ff6abd" d="M226.981 159.806Q288.5 84.146 280.014 185.969 255.973 159.806 226.981 159.806"/></svg>