<svg width="512" height="512" xmlns="http://www.w3.org/2000/svg"><path fill="#e08ddb" stroke="#000" stroke-width="4" d="M446.891 276.125Q478.711 271.529 469.872 245.366 465.63 241.477 461.741 251.73 458.912 253.851 455.023 254.558"/><path fill="#e08ddb" stroke="#000" stroke-width="4" d="M419.314 269.761Q434.164 266.933 437.699 259.155 440.174 237.941 437.346 245.72 435.224 266.579 425.325 260.569 416.839 249.962 423.557 234.052 440.174 221.324 450.073 240.416 457.852 258.448 447.952 272.59 440.174 287.085 422.85 285.671"/><path fill="#e08ddb" stroke="#000" stroke-width="8" d="M107.25 192.75Q76 81 159 149.75"/><path fill="#ff6abd" d="M113.844 182.434Q99.702 110.309 156.271 164.049"/><path fill="#ffa1f8" stroke="#000" stroke-width="8" d="M115.258 380.423Q117.38 468.105 190.125 404"/><path fill="#ffa1f8" fill-opacity="1" stroke="none" stroke-opacity="0" stroke-width="8" d="M84.853 246.78Q118 113 268 154 342.947 158.392 386.787 205.768 453.963 295.571 393 371 278 457 107.48 374.06 14.142 304.056 84.853 246.78L87 239"/><ellipse fill="#ff6abd" cx="84.853" cy="292.742" rx="16.263" ry="11.314"/><ellipse fill="#fff" cx="118.794" cy="251" rx="19.206" ry="23.684"/><ellipse fill="#000" cx="115" cy="251" rx="12.5" ry="17"/><ellipse fill="#fff" cx="205" cy="251" rx="22" ry="27"/><ellipse fill="#000" cx="200" cy="251" rx="14" ry="18"/><ellipse fill="#e08ddb" fill-opacity="1" stroke="none" stroke-opacity="1" stroke-width="4" cx="147.785" cy="309.006" rx="41.715" ry="32.527"/><ellipse cx="128" cy="308.5" rx="6" ry="9.9"/><ellipse cx="154.5" cy="308.5" rx="7.108" ry="10.373"/><ellipse fill="#ff6abd" cx="229.5" cy="296" rx="19.799" ry="12.728"/><path fill="none" fill-opacity="0" stroke="#000" stroke-width="8" d="M84.853 246.78Q118 113 268 154 342.947 158.392 386.787 205.768 453.963 295.571 393 371 278 457 107.48 374.06 14.142 304.056 84.853 246.78L87 239"/><path fill="#ffa1f8" stroke="#000" stroke-width="8" stroke-linecap="round" d="M212.75 157.5Q309.5 42.25 288.5 198.75"/><path fill="#ffa1f8" fill-opacity="1" stroke="#000" stroke-opacity="1" stroke-width="8" d="M197.75 407.125Q212.662 409.238 214.077 413.127 251 484 285 413 310.773 411.89 331.987 404.112 412.95 455.377 392.444 370.524 397.75 364.75 401.25 359.75"/><path fill="#ff6abd" d="M226.981 159.806Q288.5 84.146 280.014 185.969 255.973 159.806 226.981 159.806"/></svg>