<svg width="280" height="544" viewBox="-24 0 280 512" xmlns="http://www.w3.org/2000/svg"><circle fill="#fff" fill-opacity="1" stroke="#000" stroke-opacity="1" stroke-width="0" cx="256" cy="256" r="250"/><path fill="#000" fill-opacity="1" stroke-opacity="1" d="M68.236 415.072 79.196 313.955 9.192 236.527 13.081 331.28"/><path fill="#000" fill-opacity="1" d="M49.851 123.037 146.725 104.652 199.051 12.728 100.409 58.336"/><path fill="#000" fill-opacity="1" d="M261 433 158.392 485.782 264.5 510"/><path fill-opacity="1" stroke-opacity="0" d="M247.5 353 263.5 353 264.5 426 363 474.5 343.5 483 256.5 438.5 169 483 150 474.5 246.5 426"/><circle fill="none" fill-opacity="1" stroke="#000" stroke-opacity="1" stroke-width="15" cx="256" cy="256" r="250"/><path fill-opacity="1" d="M12.5 244 73 314.5 67.5 412 80.5 426.5 87.5 318 147 281.5 141 268.5 82.5 302.5 11.5 219"/><path fill-opacity="1" d="M41.5 139.5 53.5 120.5 142.5 100 192.5 21 210.5 17.5 157 105.5 192.5 138 182.5 146.5 145.5 114"/><path fill-opacity="1" d="M183 139 320 139 368 272 256 360 135 275"/><path fill="#000" fill-opacity="1" d="M195 152 318.905 152 368 272 256 345 152 272"/></svg>