<svg width="544" height="544" viewBox="-24 0 560 512" xmlns="http://www.w3.org/2000/svg"><path fill="#fff" d="M109.934 53.886Q59.709 252.604 180.905 387.63 130.316 414.198 88.097 443.314 141.962 486.261 217.3 497.907 405.463 372.708 401.824 212.205 441.131 215.48 505.914 243.141 496.451 152.881 455.689 102.655 315.931 85.186 220.576 136.867 224.215 56.797 249.692 3.66 158.704 13.851 116.485 48.79"/><path d="M210.021 496.451Q381.079 398.548 401.46 215.116L408.739 215.48Q387.994 403.28 219.848 499.363"/><path d="M445.412 93.353 454.961 107.751Q308.652 86.641 222.032 143.418L221.304 131.771Q315.203 74.995 451.321 101.2"/><path d="M105.191 59.897Q61.441 265.779 178.279 389.824L184.456 383.647Q62.621 258.427 118.059 51.147"/><path d="M263.592 257.544Q238.773 380.715 91.809 440.779L85.632 433.574Q227.127 379.987 254.787 256.971"/><path d="M254.059 252.604Q345.775 171.078 504.822 239.137L500.819 250.784Q369.796 173.262 261.276 259.217"/><path d="M254.059 259.883Q176.174 159.432 243.869 10.211L257.029 6.882Q187.092 155.064 256 247.765"/><path d="M256 247.765 258.381 249.051 259.603 258.316 254.006 259.989 256 247.765"/><circle fill="#fff" fill-opacity="0" stroke="#000" stroke-opacity="1" stroke-width="0" cx="256" cy="256" r="250"/><circle fill="none" fill-opacity="1" stroke="#000" stroke-opacity="1" stroke-width="15" cx="256" cy="256" r="250"/></svg>