<svg width="500" height="250" xmlns="http://www.w3.org/2000/svg"><path transform="translate(27-110)" fill="#ffa800" stroke="#000" stroke-width="10" d="M0 250 0 250 200 250 100 140 0 250"/><path transform="translate(227-110)" fill="#ffa800" stroke="#000" stroke-width="10" d="M0 250 0 250 0 260 200 260 200 250 100 140 0 250"/><path transform="translate(27-110)" fill="#ffd200" stroke="#000" stroke-width="10" d="M0 140 0 355 200 355 400 355 400 140 300 250 200 140 100 250 0 140"/><circle transform="translate(0-110)" fill="#ffc300" stroke="#000" stroke-width="10" cx="27" cy="140" r="22"/><circle transform="translate(0-110)" fill="#ffb400" stroke="#000" stroke-width="10" cx="127" cy="140" r="22"/><circle transform="translate(0-110)" fill="#0ff" cx="127" cy="300" r="30"/><circle transform="translate(0-110)" fill="#0ff" cx="327" cy="300" r="30"/><circle transform="translate(0-110)" fill="#ffc300" stroke="#000" stroke-width="10" cx="227" cy="140" r="22"/><circle transform="translate(0-110)" fill="#ffc300" stroke="#000" stroke-width="10" cx="327" cy="140" r="22"/><circle transform="translate(0-110)" fill="#ffc300" stroke="#000" stroke-width="10" cx="427" cy="140" r="22"/><ellipse transform="translate(0-110)" fill="#f00" cx="227" cy="290" rx="30" ry="40"/></svg>