<svg width="500" height="500" xmlns="http://www.w3.org/2000/svg"><circle fill="#fa4a00" stroke-opacity="0" stroke-width="0" cx="250" cy="250" r="237.875"/><path fill="#000" fill-opacity="1" stroke="#000" stroke-opacity="0" stroke-width="0" d="M436.688 102.375Q450 120.5 444.375 152.125 429.833 204.177 428.595 269.319L427.8 308.475Q429.744 348.25 431.5 354.25 442.914 394.3 431.689 403.316 420.75 363.25 418.375 343.125 415.5 314.625 415.956 287.085L416.813 270.938Q417.5 220.125 432.75 156.5 442.207 124.009 436.688 102.438"/><path fill="#000" fill-opacity="1" stroke="#000" stroke-opacity="0" stroke-width="0" d="M269.906 12.969Q305.117 15.91 333.5 84 362.039 156.801 367 274L366 291Q355 447.25 302.563 482.125 287.25 485.063 287.25 484.75 325.623 467.044 343.124 367.872 349.5 327.25 350.625 292L350.297 275.156Q349.841 222.739 341.179 162.988 328.981 97.227 304.763 50.735 283.55 18.562 269.906 12.938"/><path fill="#000" stroke="#000" stroke-opacity="0" stroke-width="0" d="M273.65 277.539Q271.125 214.75 217.25 166.25 149 108.75 102.75 88.375 92.75 84.5 80.094 83.531 85.844 77.75 89.844 74.188 101.5 75.25 106.25 76.75 142.128 87.063 216.021 144.161 287.174 199.758 290.974 277.893L290.798 295.04Q286.732 368.403 219.203 412.066 128.605 462.359 99.297 433.875 139.742 446.184 213.369 397.571 272.125 356.625 273.375 295.375"/><path fill="#000" stroke="#000" stroke-opacity="0" stroke-width="0" d="M12.178 255.184Q12.348 262.121 12.761 267.494 48.25 294 272.766 295.924L291.063 295.129Q319.5 294 350.195 292.565L366 290.75Q391.875 289.75 416 287.125L428.021 285.98Q479.563 278.938 487.307 266.292L487.749 256.569Q459.619 267.817 428.594 269.375L416.044 270.999Q391.826 273.208 366.812 274.092L350.283 275.153 291.151 277.539 273.827 277.716Q57.276 277.539 12.18 255.184"/><circle fill="none" fill-opacity="0" stroke="#000" stroke-opacity="1" stroke-width="10" cx="250" cy="250" r="233"/></svg>