<svg width="500" height="250" xmlns="http://www.w3.org/2000/svg"><path transform="translate(27-110)" fill="#ffa800" stroke="#000" stroke-width="10" d="M0 250 100 250 51 144.5 0 250"/><path transform="translate(27-110)" fill="#ffa800" stroke="#000" stroke-width="10" d="M100 250 100 250 150 144.5 200 250"/><path transform="translate(227-110)" fill="#ffa800" stroke="#000" stroke-width="10" d="M0 250 0 250 0 260 125 260 125 250 50 140 0 250"/><path transform="translate(27-110)" fill="#ffd200" stroke="#000" stroke-width="10" d="M0 140 0 355 200 355 325 355 325 140 250 250 200 140 150 250 98.5 141 50 250 0 140"/><circle transform="translate(0-110)" fill="#ffc300" stroke="#000" stroke-width="10" cx="27" cy="140" r="20"/><circle transform="translate(0-110)" fill="#ffb400" stroke="#000" stroke-width="10" cx="78" cy="144" r="19"/><ellipse transform="translate(0-110)" fill="#0ff" cx="151.5" cy="295.5" rx="27.5" ry="30"/><ellipse transform="translate(0-110)" fill="#0ff" cx="293" cy="297" rx="16.5" ry="24"/><circle transform="translate(0-110)" fill="#ffc300" stroke="#000" stroke-width="10" cx="227" cy="140" r="22"/><circle transform="translate(0-110)" fill="#ffc300" stroke="#000" stroke-width="10" cx="127" cy="140" r="21"/><circle transform="translate(0-110)" fill="#ffb400" stroke="#000" stroke-width="10" cx="279.5" cy="140" r="17"/><circle transform="translate(0-110)" fill="#ffb400" stroke="#000" stroke-width="10" cx="177" cy="144.5" r="17"/><circle transform="translate(0-110)" fill="#ffc300" stroke="#000" stroke-width="10" cx="352" cy="140" r="21"/><ellipse transform="translate(0-110)" fill="#f00" cx="227" cy="290" rx="25" ry="40"/></svg>