<svg width="512" height="512" xmlns="http://www.w3.org/2000/svg"><path fill="#f00" d="M423 158Q479 176 491 211 436 491 90 493 27 475 16 441 8 410 59 425 93 427 178 379 226 357 265 292 290 230 317 141 372 119 421 158"/><path fill="#0f0" d="M422.496 157.331Q493.561 181.726 490.732 210.364L471.994 193.394Q472 194 456 212L445.124 201.879 422.85 218.496 400.93 193.04Q401 193 366 210L373 175 341.179 165.463 368 153 345.422 135.764Q372.645 125.158 421.789 155.563"/><path fill="#009900" d="M432.042 168.291Q440.528 152.028 441.235 128.693 446.891 109.602 441.235 88.388 433.456 66.468 410.829 58.69 376.888 55.861 348.604 70.004 335.169 75.66 332.34 89.095 329.512 103.238 341.533 111.016 353.553 113.137 371.938 101.823 390.323 101.823 395.98 111.723 403.758 132.229 401.637 154.856L395.98 166.17 423.557 178.898"/></svg>