<svg width="512" height="512" xmlns="http://www.w3.org/2000/svg"><path fill="#fff" stroke="#000" stroke-width="10" d="M460 293Q463.155 404.465 364.867 424.971 231.224 444.063 192 380 181.726 355.675 198 339 121 314 140.007 263.044 53 235 52 136 53.74 62.933 165 89 470 157 460 293"/><path fill="#808080" d="M87.681 110.309Q97.581 92.631 162.635 108.187 430.628 188.798 439.82 298.399 446.184 379.716 364.16 409.415 260.215 418.607 212.839 383.252 215.668 371.231 263.044 383.252 312.541 395.273 355.675 391.737 415.072 380.423 415.779 298.399 386.08 204.354 114.551 120.915 98.288 117.38 87.681 110.309"/></svg>